name Run_40002_GRF.mot
datacolumns 19
datarows 15
range 1.546 1.56
endheader
time	     ground_force_vx	     ground_force_vy	     ground_force_vz	     ground_force_px	     ground_force_py	     ground_force_pz	   l_ground_force_vx	   l_ground_force_vy	   l_ground_force_vz	   l_ground_force_px	   l_ground_force_py	   l_ground_force_pz	     ground_torque_x	     ground_torque_y	     ground_torque_z	   l_ground_torque_x	   l_ground_torque_y	   l_ground_torque_z	
1.546	          0.00000000	          0.00000000	          0.00000000	          0.00000000	          0.00000000	          0.00000000	          0.00000000	          0.00000000	          0.00000000	          0.00000000	          0.00000000	          0.00000000	          0.00000000	          0.00000000	          0.00000000	          0.00000000	          0.00000000	          0.00000000	
1.547	         -2.74733800	         10.88771100	         -2.54691500	          1.13005400	          0.00000000	         -0.24516300	          0.00000000	          0.00000000	          0.00000000	          0.00000000	          0.00000000	          0.00000000	         -0.00000000	          0.01950400	         -0.00000000	          0.00000000	          0.00000000	          0.00000000	
1.548	         -3.26478200	         12.57341700	         -3.02215100	          1.12911200	          0.00000000	         -0.25351300	          0.00000000	          0.00000000	          0.00000000	          0.00000000	          0.00000000	          0.00000000	         -0.00000000	          0.19764200	         -0.00000000	          0.00000000	          0.00000000	          0.00000000	
1.549	         -3.88263000	         14.52200100	         -3.53482600	          1.12726700	          0.00000000	         -0.26075300	          0.00000000	          0.00000000	          0.00000000	          0.00000000	          0.00000000	          0.00000000	         -0.00000000	          0.38195700	         -0.00000000	          0.00000000	          0.00000000	          0.00000000	
1.55	         -4.60735400	         16.76994900	         -4.08638200	          1.12481500	          0.00000000	         -0.26701700	          0.00000000	          0.00000000	          0.00000000	          0.00000000	          0.00000000	          0.00000000	         -0.00000000	          0.57201600	         -0.00000000	          0.00000000	          0.00000000	          0.00000000	
1.551	         -5.44464000	         19.35727100	         -4.67813000	          1.12198800	          0.00000000	         -0.27242000	          0.00000000	          0.00000000	          0.00000000	          0.00000000	          0.00000000	          0.00000000	         -0.00000000	          0.76735700	         -0.00000000	          0.00000000	          0.00000000	          0.00000000	
1.552	         -6.39916200	         22.32752400	         -5.31122400	          1.11896000	          0.00000000	         -0.27706900	          0.00000000	          0.00000000	          0.00000000	          0.00000000	          0.00000000	          0.00000000	         -0.00000000	          0.96747800	         -0.00000000	          0.00000000	          0.00000000	          0.00000000	
1.553	         -7.47434100	         25.72777700	         -5.98663900	          1.11586400	          0.00000000	         -0.28105700	          0.00000000	          0.00000000	          0.00000000	          0.00000000	          0.00000000	          0.00000000	         -0.00000000	          1.17184800	         -0.00000000	          0.00000000	          0.00000000	          0.00000000	
1.554	         -8.67209600	         29.60854100	         -6.70514800	          1.11279300	          0.00000000	         -0.28446900	          0.00000000	          0.00000000	          0.00000000	          0.00000000	          0.00000000	          0.00000000	         -0.00000000	          1.37990500	         -0.00000000	          0.00000000	          0.00000000	          0.00000000	
1.555	         -9.99258200	         34.02362800	         -7.46728800	          1.10981600	          0.00000000	         -0.28738400	          0.00000000	          0.00000000	          0.00000000	          0.00000000	          0.00000000	          0.00000000	         -0.00000000	          1.59105300	         -0.00000000	          0.00000000	          0.00000000	          0.00000000	
1.556	        -11.43393800	         39.02997200	         -8.27333600	          1.10697700	          0.00000000	         -0.28987000	          0.00000000	          0.00000000	          0.00000000	          0.00000000	          0.00000000	          0.00000000	         -0.00000000	          1.80467300	         -0.00000000	          0.00000000	          0.00000000	          0.00000000	
1.557	        -12.99204600	         44.68734400	         -9.12327400	          1.10430300	          0.00000000	         -0.29199000	          0.00000000	          0.00000000	          0.00000000	          0.00000000	          0.00000000	          0.00000000	         -0.00000000	          2.02011600	         -0.00000000	          0.00000000	          0.00000000	          0.00000000	
1.558	        -14.66032300	         51.05804400	        -10.01675100	          1.10180900	          0.00000000	         -0.29380000	          0.00000000	          0.00000000	          0.00000000	          0.00000000	          0.00000000	          0.00000000	         -0.00000000	          2.23671100	         -0.00000000	          0.00000000	          0.00000000	          0.00000000	
1.559	        -16.42954300	         58.20647000	        -10.95305500	          1.09949900	          0.00000000	         -0.29534700	          0.00000000	          0.00000000	          0.00000000	          0.00000000	          0.00000000	          0.00000000	         -0.00000000	          2.45376500	         -0.00000000	          0.00000000	          0.00000000	          0.00000000	
1.56	        -18.28773100	         66.19862400	        -11.93105900	          1.09737200	          0.00000000	         -0.29667700	          0.00000000	          0.00000000	          0.00000000	          0.00000000	          0.00000000	          0.00000000	         -0.00000000	          2.67056500	         -0.00000000	          0.00000000	          0.00000000	          0.00000000	
